<svg width="56" height="56" viewBox="0 0 56 56" fill="none" xmlns="http://www.w3.org/2000/svg">
<rect width="56" height="56" rx="10" fill="url(#paint0_linear_11263_4029)"/>
<path fill-rule="evenodd" clip-rule="evenodd" d="M16.811 17.143L14.6449 12H27.2253V17.143H22.762V25.4286H27.2253V30.5713H22.762V38.857H27.2253V44H12L14.166 38.857H16.811V17.143ZM39.382 26.9409C42.3137 28.599 44.252 31.4603 44.252 34.7143C44.252 39.8426 39.4413 44 33.507 44H29.8701V38.857H33.5069C36.1504 38.857 38.3007 36.9985 38.3007 34.7142C38.3007 32.4299 36.1502 30.5714 33.5069 30.5714H29.8701V25.4284H30.862C33.5054 25.4284 35.6558 23.5698 35.6558 21.2855C35.6558 19.0013 33.5054 17.143 30.862 17.143H29.8701V12H30.862C36.7964 12 41.607 16.1573 41.607 21.2858C41.607 23.4145 40.7762 25.3746 39.382 26.9409Z" fill="white"/>
<defs>
<linearGradient id="paint0_linear_11263_4029" x1="28" y1="0" x2="28" y2="56" gradientUnits="userSpaceOnUse">
<stop stop-color="#0091EB"/>
<stop offset="1" stop-color="#1A357C"/>
</linearGradient>
</defs>
</svg>
