<svg width="146" height="236" viewBox="0 0 146 236" fill="none" xmlns="http://www.w3.org/2000/svg">
<path d="M73.2199 218.53L73.1699 201.52L115.62 176.31L115.47 125.71L130.76 117.6L131.36 185.17L73.2199 218.53Z" fill="#494949"/>
<path d="M85.6099 93.4901L102.99 83.5601L145.62 110.51L145.85 191.95L131.36 185.17L130.76 117.6L85.6099 93.4901Z" fill="white"/>
<path d="M72.5601 0L145.42 41.86L145.47 59.29L72.6401 18.26L72.5601 0Z" fill="white"/>
<path d="M0.25 127.75L0 42.71L72.56 0L72.64 18.26L13.62 51.58L13.4 117.94L0.25 127.75Z" fill="#494949"/>
<path d="M43 151.48L0.25 127.75L13.4 117.94L86.65 160.18L43.1 184.96L28.52 193.15L73.22 218.53L131.36 185.17L145.85 191.95L72.86 235.53L0.44 194.06L58.16 159.9L43 151.48Z" fill="#B3B3B3"/>
<path d="M13.6201 51.58L72.6401 18.26L145.47 59.29L102.99 83.56L85.6101 93.49L130.76 117.6L115.47 125.71L57.5201 92.69L115.28 58.52L101.5 50.59L72.6801 33.99L29.7901 58.77L13.6201 51.58Z" fill="#B3B3B3"/>
<path d="M28.52 193.15L43.1 184.96L73.17 201.52L73.22 218.53L28.52 193.15Z" fill="white"/>
<path d="M0.440137 194.06L0.390137 175.79L43.0001 151.48L58.1601 159.9L0.440137 194.06Z" fill="#494949"/>
<path d="M57.52 92.69L57.69 75.28L101.5 50.59L115.28 58.52L57.52 92.69Z" fill="#494949"/>
<path d="M13.3999 117.94L13.6199 51.58L29.7899 58.77L29.9399 110.84L86.5899 142.38L86.6499 160.18L13.3999 117.94Z" fill="white"/>
</svg>
